<mxfile host="app.diagrams.net" modified="2023-04-27T12:32:54.308Z" agent="Mozilla/5.0 (Windows NT 10.0; Win64; x64) AppleWebKit/537.36 (KHTML, like Gecko) Chrome/112.0.0.0 Safari/537.36" etag="vbsnAFNDV60n9Ry3VqxH" version="21.2.3" type="github">
  <diagram id="fNhGYGEZPexsr2s_n4jo" name="Rotas e Gateway">
    <mxGraphModel dx="1434" dy="806" grid="1" gridSize="10" guides="1" tooltips="1" connect="1" arrows="1" fold="1" page="1" pageScale="1" pageWidth="3300" pageHeight="4681" math="0" shadow="0">
      <root>
        <mxCell id="pzjM3aIUfkNf804t1Lbv-0" />
        <mxCell id="pzjM3aIUfkNf804t1Lbv-1" parent="pzjM3aIUfkNf804t1Lbv-0" />
        <mxCell id="pzjM3aIUfkNf804t1Lbv-3" value="aks hlg" style="rounded=0;whiteSpace=wrap;html=1;fontStyle=1;align=center;verticalAlign=bottom;fillColor=#dae8fc;strokeColor=#6c8ebf;" parent="pzjM3aIUfkNf804t1Lbv-1" vertex="1">
          <mxGeometry x="330" y="270" width="650" height="20" as="geometry" />
        </mxCell>
        <mxCell id="pzjM3aIUfkNf804t1Lbv-24" style="edgeStyle=orthogonalEdgeStyle;rounded=0;orthogonalLoop=1;jettySize=auto;html=1;entryX=0;entryY=0.5;entryDx=0;entryDy=0;curved=1;" parent="pzjM3aIUfkNf804t1Lbv-1" source="pzjM3aIUfkNf804t1Lbv-4" target="pzjM3aIUfkNf804t1Lbv-20" edge="1">
          <mxGeometry relative="1" as="geometry" />
        </mxCell>
        <mxCell id="pzjM3aIUfkNf804t1Lbv-25" style="edgeStyle=orthogonalEdgeStyle;rounded=0;orthogonalLoop=1;jettySize=auto;html=1;entryX=0;entryY=0.5;entryDx=0;entryDy=0;curved=1;" parent="pzjM3aIUfkNf804t1Lbv-1" source="pzjM3aIUfkNf804t1Lbv-4" target="pzjM3aIUfkNf804t1Lbv-22" edge="1">
          <mxGeometry relative="1" as="geometry" />
        </mxCell>
        <mxCell id="pzjM3aIUfkNf804t1Lbv-26" style="edgeStyle=orthogonalEdgeStyle;rounded=0;orthogonalLoop=1;jettySize=auto;html=1;entryX=0;entryY=0.5;entryDx=0;entryDy=0;curved=1;" parent="pzjM3aIUfkNf804t1Lbv-1" source="pzjM3aIUfkNf804t1Lbv-4" target="pzjM3aIUfkNf804t1Lbv-23" edge="1">
          <mxGeometry relative="1" as="geometry" />
        </mxCell>
        <mxCell id="pzjM3aIUfkNf804t1Lbv-4" value="namespace&lt;br&gt;&lt;br&gt;vmaiscarrinho&lt;b&gt;-dev&lt;/b&gt;" style="rounded=0;whiteSpace=wrap;html=1;" parent="pzjM3aIUfkNf804t1Lbv-1" vertex="1">
          <mxGeometry x="691" y="330" width="120" height="50" as="geometry" />
        </mxCell>
        <mxCell id="pzjM3aIUfkNf804t1Lbv-17" style="edgeStyle=orthogonalEdgeStyle;rounded=0;orthogonalLoop=1;jettySize=auto;html=1;entryX=0;entryY=0.5;entryDx=0;entryDy=0;curved=1;" parent="pzjM3aIUfkNf804t1Lbv-1" source="pzjM3aIUfkNf804t1Lbv-9" target="pzjM3aIUfkNf804t1Lbv-4" edge="1">
          <mxGeometry relative="1" as="geometry" />
        </mxCell>
        <mxCell id="pzjM3aIUfkNf804t1Lbv-9" value="gateway-ingress&lt;br&gt;&lt;br&gt;&lt;b&gt;dev&lt;/b&gt;.vmaiscarrinho-hlg.via.com.br/&lt;b&gt;{service}&lt;/b&gt;" style="rounded=0;whiteSpace=wrap;html=1;fontStyle=0" parent="pzjM3aIUfkNf804t1Lbv-1" vertex="1">
          <mxGeometry x="345" y="330" width="285" height="50" as="geometry" />
        </mxCell>
        <mxCell id="pzjM3aIUfkNf804t1Lbv-18" style="edgeStyle=orthogonalEdgeStyle;rounded=0;orthogonalLoop=1;jettySize=auto;html=1;entryX=0;entryY=0.5;entryDx=0;entryDy=0;curved=1;" parent="pzjM3aIUfkNf804t1Lbv-1" source="pzjM3aIUfkNf804t1Lbv-12" target="pzjM3aIUfkNf804t1Lbv-14" edge="1">
          <mxGeometry relative="1" as="geometry" />
        </mxCell>
        <mxCell id="pzjM3aIUfkNf804t1Lbv-12" value="gateway-ingress&lt;br&gt;&lt;br&gt;&lt;b&gt;sit&lt;/b&gt;.vmaiscarrinho-hlg.via.com.br/&lt;b&gt;{service}&lt;/b&gt;" style="rounded=0;whiteSpace=wrap;html=1;fontStyle=0" parent="pzjM3aIUfkNf804t1Lbv-1" vertex="1">
          <mxGeometry x="344" y="445" width="286" height="50" as="geometry" />
        </mxCell>
        <mxCell id="pzjM3aIUfkNf804t1Lbv-19" style="edgeStyle=orthogonalEdgeStyle;rounded=0;orthogonalLoop=1;jettySize=auto;html=1;curved=1;" parent="pzjM3aIUfkNf804t1Lbv-1" source="pzjM3aIUfkNf804t1Lbv-13" target="pzjM3aIUfkNf804t1Lbv-15" edge="1">
          <mxGeometry relative="1" as="geometry" />
        </mxCell>
        <mxCell id="pzjM3aIUfkNf804t1Lbv-13" value="gateway-ingress&lt;br&gt;&lt;br&gt;&lt;b&gt;hlg&lt;/b&gt;.vmaiscarrinho-hlg.via.com.br/&lt;b&gt;{service}&lt;/b&gt;" style="rounded=0;whiteSpace=wrap;html=1;fontStyle=0" parent="pzjM3aIUfkNf804t1Lbv-1" vertex="1">
          <mxGeometry x="344" y="555" width="286" height="50" as="geometry" />
        </mxCell>
        <mxCell id="pzjM3aIUfkNf804t1Lbv-33" style="edgeStyle=orthogonalEdgeStyle;rounded=0;orthogonalLoop=1;jettySize=auto;html=1;entryX=0;entryY=0.5;entryDx=0;entryDy=0;curved=1;" parent="pzjM3aIUfkNf804t1Lbv-1" source="pzjM3aIUfkNf804t1Lbv-14" target="pzjM3aIUfkNf804t1Lbv-27" edge="1">
          <mxGeometry relative="1" as="geometry" />
        </mxCell>
        <mxCell id="pzjM3aIUfkNf804t1Lbv-34" style="edgeStyle=orthogonalEdgeStyle;rounded=0;orthogonalLoop=1;jettySize=auto;html=1;curved=1;" parent="pzjM3aIUfkNf804t1Lbv-1" source="pzjM3aIUfkNf804t1Lbv-14" target="pzjM3aIUfkNf804t1Lbv-28" edge="1">
          <mxGeometry relative="1" as="geometry" />
        </mxCell>
        <mxCell id="pzjM3aIUfkNf804t1Lbv-35" style="edgeStyle=orthogonalEdgeStyle;rounded=0;orthogonalLoop=1;jettySize=auto;html=1;entryX=0;entryY=0.5;entryDx=0;entryDy=0;curved=1;" parent="pzjM3aIUfkNf804t1Lbv-1" source="pzjM3aIUfkNf804t1Lbv-14" target="pzjM3aIUfkNf804t1Lbv-29" edge="1">
          <mxGeometry relative="1" as="geometry" />
        </mxCell>
        <mxCell id="pzjM3aIUfkNf804t1Lbv-14" value="namespace&lt;br&gt;&lt;br&gt;vmaiscarrinho&lt;b&gt;-sit&lt;/b&gt;" style="rounded=0;whiteSpace=wrap;html=1;" parent="pzjM3aIUfkNf804t1Lbv-1" vertex="1">
          <mxGeometry x="690" y="445" width="120" height="50" as="geometry" />
        </mxCell>
        <mxCell id="pzjM3aIUfkNf804t1Lbv-36" style="edgeStyle=orthogonalEdgeStyle;rounded=0;orthogonalLoop=1;jettySize=auto;html=1;entryX=0;entryY=0.5;entryDx=0;entryDy=0;curved=1;" parent="pzjM3aIUfkNf804t1Lbv-1" source="pzjM3aIUfkNf804t1Lbv-15" target="pzjM3aIUfkNf804t1Lbv-30" edge="1">
          <mxGeometry relative="1" as="geometry" />
        </mxCell>
        <mxCell id="pzjM3aIUfkNf804t1Lbv-37" style="edgeStyle=orthogonalEdgeStyle;rounded=0;orthogonalLoop=1;jettySize=auto;html=1;entryX=0;entryY=0.5;entryDx=0;entryDy=0;curved=1;" parent="pzjM3aIUfkNf804t1Lbv-1" source="pzjM3aIUfkNf804t1Lbv-15" target="pzjM3aIUfkNf804t1Lbv-31" edge="1">
          <mxGeometry relative="1" as="geometry" />
        </mxCell>
        <mxCell id="pzjM3aIUfkNf804t1Lbv-38" style="edgeStyle=orthogonalEdgeStyle;rounded=0;orthogonalLoop=1;jettySize=auto;html=1;entryX=0;entryY=0.5;entryDx=0;entryDy=0;curved=1;" parent="pzjM3aIUfkNf804t1Lbv-1" source="pzjM3aIUfkNf804t1Lbv-15" target="pzjM3aIUfkNf804t1Lbv-32" edge="1">
          <mxGeometry relative="1" as="geometry" />
        </mxCell>
        <mxCell id="pzjM3aIUfkNf804t1Lbv-15" value="namespace&lt;br&gt;&lt;br&gt;vmaiscarrinho&lt;b&gt;-hlg&lt;/b&gt;" style="rounded=0;whiteSpace=wrap;html=1;" parent="pzjM3aIUfkNf804t1Lbv-1" vertex="1">
          <mxGeometry x="690" y="555" width="120" height="50" as="geometry" />
        </mxCell>
        <mxCell id="pzjM3aIUfkNf804t1Lbv-20" value="service-a" style="rounded=0;whiteSpace=wrap;html=1;" parent="pzjM3aIUfkNf804t1Lbv-1" vertex="1">
          <mxGeometry x="866" y="315" width="90" height="20" as="geometry" />
        </mxCell>
        <mxCell id="pzjM3aIUfkNf804t1Lbv-22" value="service-b" style="rounded=0;whiteSpace=wrap;html=1;" parent="pzjM3aIUfkNf804t1Lbv-1" vertex="1">
          <mxGeometry x="867" y="345" width="90" height="20" as="geometry" />
        </mxCell>
        <mxCell id="pzjM3aIUfkNf804t1Lbv-23" value="service-c" style="rounded=0;whiteSpace=wrap;html=1;" parent="pzjM3aIUfkNf804t1Lbv-1" vertex="1">
          <mxGeometry x="866" y="375" width="90" height="20" as="geometry" />
        </mxCell>
        <mxCell id="pzjM3aIUfkNf804t1Lbv-27" value="service-a" style="rounded=0;whiteSpace=wrap;html=1;" parent="pzjM3aIUfkNf804t1Lbv-1" vertex="1">
          <mxGeometry x="864" y="430" width="90" height="20" as="geometry" />
        </mxCell>
        <mxCell id="pzjM3aIUfkNf804t1Lbv-28" value="service-b" style="rounded=0;whiteSpace=wrap;html=1;" parent="pzjM3aIUfkNf804t1Lbv-1" vertex="1">
          <mxGeometry x="865" y="460" width="90" height="20" as="geometry" />
        </mxCell>
        <mxCell id="pzjM3aIUfkNf804t1Lbv-29" value="service-c" style="rounded=0;whiteSpace=wrap;html=1;" parent="pzjM3aIUfkNf804t1Lbv-1" vertex="1">
          <mxGeometry x="864" y="490" width="90" height="20" as="geometry" />
        </mxCell>
        <mxCell id="pzjM3aIUfkNf804t1Lbv-30" value="service-a" style="rounded=0;whiteSpace=wrap;html=1;" parent="pzjM3aIUfkNf804t1Lbv-1" vertex="1">
          <mxGeometry x="865" y="540" width="90" height="20" as="geometry" />
        </mxCell>
        <mxCell id="pzjM3aIUfkNf804t1Lbv-31" value="service-b" style="rounded=0;whiteSpace=wrap;html=1;" parent="pzjM3aIUfkNf804t1Lbv-1" vertex="1">
          <mxGeometry x="866" y="570" width="90" height="20" as="geometry" />
        </mxCell>
        <mxCell id="pzjM3aIUfkNf804t1Lbv-32" value="service-c" style="rounded=0;whiteSpace=wrap;html=1;" parent="pzjM3aIUfkNf804t1Lbv-1" vertex="1">
          <mxGeometry x="865" y="600" width="90" height="20" as="geometry" />
        </mxCell>
        <mxCell id="pzjM3aIUfkNf804t1Lbv-44" style="edgeStyle=orthogonalEdgeStyle;rounded=0;orthogonalLoop=1;jettySize=auto;html=1;entryX=0;entryY=0.5;entryDx=0;entryDy=0;curved=1;" parent="pzjM3aIUfkNf804t1Lbv-1" source="pzjM3aIUfkNf804t1Lbv-43" target="pzjM3aIUfkNf804t1Lbv-9" edge="1">
          <mxGeometry relative="1" as="geometry" />
        </mxCell>
        <mxCell id="pzjM3aIUfkNf804t1Lbv-45" style="edgeStyle=orthogonalEdgeStyle;rounded=0;orthogonalLoop=1;jettySize=auto;html=1;entryX=0;entryY=0.5;entryDx=0;entryDy=0;curved=1;" parent="pzjM3aIUfkNf804t1Lbv-1" source="pzjM3aIUfkNf804t1Lbv-43" target="pzjM3aIUfkNf804t1Lbv-12" edge="1">
          <mxGeometry relative="1" as="geometry" />
        </mxCell>
        <mxCell id="pzjM3aIUfkNf804t1Lbv-46" style="edgeStyle=orthogonalEdgeStyle;rounded=0;orthogonalLoop=1;jettySize=auto;html=1;entryX=0;entryY=0.5;entryDx=0;entryDy=0;curved=1;" parent="pzjM3aIUfkNf804t1Lbv-1" source="pzjM3aIUfkNf804t1Lbv-43" target="pzjM3aIUfkNf804t1Lbv-13" edge="1">
          <mxGeometry relative="1" as="geometry" />
        </mxCell>
        <mxCell id="pzjM3aIUfkNf804t1Lbv-47" value="http request" style="edgeLabel;html=1;align=center;verticalAlign=middle;resizable=0;points=[];fontStyle=1" parent="pzjM3aIUfkNf804t1Lbv-46" vertex="1" connectable="0">
          <mxGeometry x="-0.6086" relative="1" as="geometry">
            <mxPoint x="-6" as="offset" />
          </mxGeometry>
        </mxCell>
        <mxCell id="pzjM3aIUfkNf804t1Lbv-43" value="" style="ellipse;whiteSpace=wrap;html=1;aspect=fixed;align=center;verticalAlign=bottom;" parent="pzjM3aIUfkNf804t1Lbv-1" vertex="1">
          <mxGeometry x="170" y="457.5" width="25" height="25" as="geometry" />
        </mxCell>
        <mxCell id="pzjM3aIUfkNf804t1Lbv-49" value="aks prd" style="rounded=0;whiteSpace=wrap;html=1;fontStyle=1;align=center;verticalAlign=bottom;fillColor=#dae8fc;strokeColor=#6c8ebf;" parent="pzjM3aIUfkNf804t1Lbv-1" vertex="1">
          <mxGeometry x="330" y="660" width="650" height="20" as="geometry" />
        </mxCell>
        <mxCell id="pzjM3aIUfkNf804t1Lbv-50" style="edgeStyle=orthogonalEdgeStyle;rounded=0;orthogonalLoop=1;jettySize=auto;html=1;entryX=0;entryY=0.5;entryDx=0;entryDy=0;curved=1;" parent="pzjM3aIUfkNf804t1Lbv-1" source="pzjM3aIUfkNf804t1Lbv-53" target="pzjM3aIUfkNf804t1Lbv-68" edge="1">
          <mxGeometry relative="1" as="geometry" />
        </mxCell>
        <mxCell id="pzjM3aIUfkNf804t1Lbv-51" style="edgeStyle=orthogonalEdgeStyle;rounded=0;orthogonalLoop=1;jettySize=auto;html=1;entryX=0;entryY=0.5;entryDx=0;entryDy=0;curved=1;" parent="pzjM3aIUfkNf804t1Lbv-1" source="pzjM3aIUfkNf804t1Lbv-53" target="pzjM3aIUfkNf804t1Lbv-69" edge="1">
          <mxGeometry relative="1" as="geometry" />
        </mxCell>
        <mxCell id="pzjM3aIUfkNf804t1Lbv-52" style="edgeStyle=orthogonalEdgeStyle;rounded=0;orthogonalLoop=1;jettySize=auto;html=1;entryX=0;entryY=0.5;entryDx=0;entryDy=0;curved=1;" parent="pzjM3aIUfkNf804t1Lbv-1" source="pzjM3aIUfkNf804t1Lbv-53" target="pzjM3aIUfkNf804t1Lbv-70" edge="1">
          <mxGeometry relative="1" as="geometry" />
        </mxCell>
        <mxCell id="pzjM3aIUfkNf804t1Lbv-53" value="namespace&lt;br&gt;&lt;br&gt;vmaiscarrinho&lt;b&gt;-prd&lt;/b&gt;" style="rounded=0;whiteSpace=wrap;html=1;" parent="pzjM3aIUfkNf804t1Lbv-1" vertex="1">
          <mxGeometry x="691" y="720" width="120" height="50" as="geometry" />
        </mxCell>
        <mxCell id="pzjM3aIUfkNf804t1Lbv-54" style="edgeStyle=orthogonalEdgeStyle;rounded=0;orthogonalLoop=1;jettySize=auto;html=1;entryX=0;entryY=0.5;entryDx=0;entryDy=0;curved=1;" parent="pzjM3aIUfkNf804t1Lbv-1" source="pzjM3aIUfkNf804t1Lbv-55" target="pzjM3aIUfkNf804t1Lbv-53" edge="1">
          <mxGeometry relative="1" as="geometry" />
        </mxCell>
        <mxCell id="pzjM3aIUfkNf804t1Lbv-55" value="gateway-ingress&lt;br&gt;&lt;br&gt;&lt;b&gt;prd&lt;/b&gt;.vmaiscarrinho-prd.via.com.br/&lt;b&gt;{service}&lt;/b&gt;" style="rounded=0;whiteSpace=wrap;html=1;fontStyle=0" parent="pzjM3aIUfkNf804t1Lbv-1" vertex="1">
          <mxGeometry x="345" y="720" width="285" height="50" as="geometry" />
        </mxCell>
        <mxCell id="pzjM3aIUfkNf804t1Lbv-68" value="service-a" style="rounded=0;whiteSpace=wrap;html=1;" parent="pzjM3aIUfkNf804t1Lbv-1" vertex="1">
          <mxGeometry x="866" y="705" width="90" height="20" as="geometry" />
        </mxCell>
        <mxCell id="pzjM3aIUfkNf804t1Lbv-69" value="service-b" style="rounded=0;whiteSpace=wrap;html=1;" parent="pzjM3aIUfkNf804t1Lbv-1" vertex="1">
          <mxGeometry x="867" y="735" width="90" height="20" as="geometry" />
        </mxCell>
        <mxCell id="pzjM3aIUfkNf804t1Lbv-70" value="service-c" style="rounded=0;whiteSpace=wrap;html=1;" parent="pzjM3aIUfkNf804t1Lbv-1" vertex="1">
          <mxGeometry x="866" y="765" width="90" height="20" as="geometry" />
        </mxCell>
        <mxCell id="pzjM3aIUfkNf804t1Lbv-79" style="edgeStyle=orthogonalEdgeStyle;rounded=0;orthogonalLoop=1;jettySize=auto;html=1;entryX=0;entryY=0.5;entryDx=0;entryDy=0;curved=1;exitX=1;exitY=0.5;exitDx=0;exitDy=0;" parent="pzjM3aIUfkNf804t1Lbv-1" source="pzjM3aIUfkNf804t1Lbv-81" target="pzjM3aIUfkNf804t1Lbv-55" edge="1">
          <mxGeometry relative="1" as="geometry">
            <mxPoint x="153" y="745" as="sourcePoint" />
            <mxPoint x="344" y="970" as="targetPoint" />
          </mxGeometry>
        </mxCell>
        <mxCell id="pzjM3aIUfkNf804t1Lbv-80" value="http request" style="edgeLabel;html=1;align=center;verticalAlign=middle;resizable=0;points=[];fontStyle=1" parent="pzjM3aIUfkNf804t1Lbv-79" vertex="1" connectable="0">
          <mxGeometry x="-0.6086" relative="1" as="geometry">
            <mxPoint x="16" as="offset" />
          </mxGeometry>
        </mxCell>
        <mxCell id="pzjM3aIUfkNf804t1Lbv-81" value="" style="ellipse;whiteSpace=wrap;html=1;aspect=fixed;align=center;verticalAlign=bottom;" parent="pzjM3aIUfkNf804t1Lbv-1" vertex="1">
          <mxGeometry x="170" y="732" width="25" height="25" as="geometry" />
        </mxCell>
        <mxCell id="pzjM3aIUfkNf804t1Lbv-82" value="DNS" style="text;html=1;strokeColor=#82b366;fillColor=#d5e8d4;align=center;verticalAlign=middle;whiteSpace=wrap;rounded=0;fontStyle=1" parent="pzjM3aIUfkNf804t1Lbv-1" vertex="1">
          <mxGeometry x="610" y="365" width="50" height="25" as="geometry" />
        </mxCell>
        <mxCell id="pzjM3aIUfkNf804t1Lbv-83" value="DNS" style="text;html=1;strokeColor=#82b366;fillColor=#d5e8d4;align=center;verticalAlign=middle;whiteSpace=wrap;rounded=0;fontStyle=1" parent="pzjM3aIUfkNf804t1Lbv-1" vertex="1">
          <mxGeometry x="610" y="485" width="50" height="25" as="geometry" />
        </mxCell>
        <mxCell id="pzjM3aIUfkNf804t1Lbv-84" value="DNS" style="text;html=1;strokeColor=#82b366;fillColor=#d5e8d4;align=center;verticalAlign=middle;whiteSpace=wrap;rounded=0;fontStyle=1" parent="pzjM3aIUfkNf804t1Lbv-1" vertex="1">
          <mxGeometry x="610" y="590" width="50" height="25" as="geometry" />
        </mxCell>
        <mxCell id="pzjM3aIUfkNf804t1Lbv-85" value="DNS" style="text;html=1;strokeColor=#82b366;fillColor=#d5e8d4;align=center;verticalAlign=middle;whiteSpace=wrap;rounded=0;fontStyle=1" parent="pzjM3aIUfkNf804t1Lbv-1" vertex="1">
          <mxGeometry x="610" y="760" width="50" height="25" as="geometry" />
        </mxCell>
      </root>
    </mxGraphModel>
  </diagram>
</mxfile>
